<svg id="visual" viewBox="0 0 900 600" width="900" height="600" xmlns="http://www.w3.org/2000/svg" xmlns:xlink="http://www.w3.org/1999/xlink" version="1.1"><rect x="0" y="0" width="900" height="600" fill="#594433"></rect><path d="M648 600L663.7 585.7C679.3 571.3 710.7 542.7 706.2 514.2C701.7 485.7 661.3 457.3 631.7 428.8C602 400.3 583 371.7 596 343C609 314.3 654 285.7 659.5 257C665 228.3 631 199.7 633 171.2C635 142.7 673 114.3 701.5 85.8C730 57.3 749 28.7 758.5 14.3L768 0L900 0L900 14.3C900 28.7 900 57.3 900 85.8C900 114.3 900 142.7 900 171.2C900 199.7 900 228.3 900 257C900 285.7 900 314.3 900 343C900 371.7 900 400.3 900 428.8C900 457.3 900 485.7 900 514.2C900 542.7 900 571.3 900 585.7L900 600Z" fill="#BF916D" stroke-linecap="round" stroke-linejoin="miter"></path></svg>