<svg id="visual" viewBox="0 0 960 540" width="960" height="540" xmlns="http://www.w3.org/2000/svg" xmlns:xlink="http://www.w3.org/1999/xlink" version="1.1"><rect x="0" y="0" width="960" height="540" fill="#001220"></rect><path d="M0 408L32 406.5C64 405 128 402 192 397.3C256 392.7 320 386.3 384 386.5C448 386.7 512 393.3 576 387.8C640 382.3 704 364.7 768 355.2C832 345.7 896 344.3 928 343.7L960 343L960 541L928 541C896 541 832 541 768 541C704 541 640 541 576 541C512 541 448 541 384 541C320 541 256 541 192 541C128 541 64 541 32 541L0 541Z" fill="#fa7268"></path><path d="M0 387L32 386C64 385 128 383 192 391C256 399 320 417 384 427.5C448 438 512 441 576 442.3C640 443.7 704 443.3 768 431.5C832 419.7 896 396.3 928 384.7L960 373L960 541L928 541C896 541 832 541 768 541C704 541 640 541 576 541C512 541 448 541 384 541C320 541 256 541 192 541C128 541 64 541 32 541L0 541Z" fill="#ef5f67"></path><path d="M0 429L32 423.8C64 418.7 128 408.3 192 407C256 405.7 320 413.3 384 417.8C448 422.3 512 423.7 576 428.7C640 433.7 704 442.3 768 442C832 441.7 896 432.3 928 427.7L960 423L960 541L928 541C896 541 832 541 768 541C704 541 640 541 576 541C512 541 448 541 384 541C320 541 256 541 192 541C128 541 64 541 32 541L0 541Z" fill="#e34c67"></path><path d="M0 463L32 467.2C64 471.3 128 479.7 192 479.5C256 479.3 320 470.7 384 466C448 461.3 512 460.7 576 465.7C640 470.7 704 481.3 768 486.8C832 492.3 896 492.7 928 492.8L960 493L960 541L928 541C896 541 832 541 768 541C704 541 640 541 576 541C512 541 448 541 384 541C320 541 256 541 192 541C128 541 64 541 32 541L0 541Z" fill="#d53867"></path><path d="M0 478L32 482.8C64 487.7 128 497.3 192 502.3C256 507.3 320 507.7 384 506.3C448 505 512 502 576 497.7C640 493.3 704 487.7 768 487C832 486.3 896 490.7 928 492.8L960 495L960 541L928 541C896 541 832 541 768 541C704 541 640 541 576 541C512 541 448 541 384 541C320 541 256 541 192 541C128 541 64 541 32 541L0 541Z" fill="#c62368"></path></svg>